<?xml version="1.0" encoding="UTF-8"?><svg id="Layer_1" xmlns="http://www.w3.org/2000/svg" viewBox="0 0 96 42"><defs><style>.cls-1{fill:#b11116;}.cls-2{fill:#d5b527;}</style></defs><path class="cls-2" d="M13.8.02c.29-.04.59-.02.86.11.43.19.78.57.87,1.03.06.38-.05.78-.3,1.08-.07.08-.15.15-.23.23,1.33.13,2.68.44,3.81,1.18.11.07.21.17.33.23,1.09.12,2.19.34,3.14.91.43.27.82.62,1.07,1.06.24.41.36.89.34,1.37.02.37-.08.73-.25,1.06-.23.47-.6.87-1.01,1.18-.4.29-.84.52-1.31.67-.12.04-.25.07-.36.12.45.05.91.1,1.33.27.03.09.04.19.06.28.1.56.21,1.12.32,1.68-2.24-.29-4.5-.49-6.76-.53-.52-.03-1.05-.02-1.58-.02-.39,0-.78,0-1.17.02-.84,0-1.67.06-2.51.1-.63.05-1.27.09-1.9.16-.94.09-1.87.2-2.8.33-.05,0-.09,0-.13,0,.15-.66.26-1.34.39-2.01.16-.08.33-.1.5-.14.31-.07.62-.1.93-.15-.65-.15-1.28-.43-1.81-.84-.54-.42-.98-.99-1.14-1.65-.07-.26-.05-.52-.05-.79.03-.61.31-1.19.73-1.63.55-.57,1.3-.91,2.05-1.13.58-.17,1.18-.26,1.77-.33.06-.03.1-.07.16-.11.76-.55,1.65-.87,2.55-1.08.47-.1.95-.17,1.43-.22-.23-.2-.43-.45-.5-.75-.09-.33-.05-.69.13-.98.23-.37.61-.63,1.04-.71ZM10.89,4.51c-.47.34-.89.8-1.1,1.35-.11.26-.16.55-.17.83,0,.65.29,1.29.74,1.75.44.48,1.01.81,1.61,1.03.46.16.93.26,1.41.3-.42-.64-.57-1.42-.66-2.18-.05-.54-.06-1.09-.02-1.63.06-.79.21-1.61.6-2.31-.86.08-1.7.36-2.41.86ZM14.84,3.66c.32.58.47,1.25.55,1.9.01.19.05.37.05.56,0,.45.01.89-.01,1.34-.05.36-.09.73-.18,1.09-.11.43-.25.86-.5,1.23.43-.02.86-.12,1.27-.25.6-.2,1.17-.51,1.63-.94.36-.35.65-.78.78-1.26.1-.37.11-.77.02-1.15-.14-.59-.51-1.1-.97-1.48-.74-.62-1.69-.95-2.64-1.04ZM7.21,5.25c-.47.22-.9.58-1.13,1.06-.2.44-.26.94-.16,1.41.1.47.38.9.75,1.2.5.4,1.12.61,1.74.71.54.07,1.1.09,1.64,0-.35-.15-.69-.31-1-.53-.55-.36-1.02-.87-1.24-1.5-.32-.89-.09-1.93.49-2.67-.38.04-.75.16-1.1.32ZM19.82,4.93c.4.52.63,1.17.63,1.83,0,.52-.17,1.05-.47,1.47-.16.23-.36.42-.56.61-.4.33-.86.58-1.34.78.16.05.32.03.48.05.36.03.72,0,1.08-.04.53-.08,1.06-.22,1.52-.51.45-.27.82-.69.98-1.19.13-.4.14-.84.03-1.24-.11-.46-.4-.87-.79-1.15-.46-.33-1.01-.53-1.57-.6Z"/><path class="cls-2" d="M14.18,13.43c.17,0,.35,0,.53,0,.58.01,1.17,0,1.75.03,1.27.02,2.53.1,3.79.2,1.79.15,3.59.36,5.36.64.59,3.15,1.12,6.3,1.67,9.46.3,1.8.61,3.59.91,5.39.06.37.16.73.15,1.11,0,.19,0,.39,0,.58-.07.54-.25,1.07-.56,1.53-.33.49-.77.89-1.23,1.25-.84.62-1.71,1.21-2.57,1.81-2.81,1.94-5.63,3.86-8.45,5.77-.38.26-.77.52-1.15.78-.09.06-.17-.03-.24-.07-2-1.32-4-2.64-5.99-3.97-1.87-1.26-3.75-2.51-5.6-3.79-.42-.3-.85-.58-1.22-.93-.33-.3-.64-.65-.87-1.04-.31-.54-.47-1.17-.44-1.8-.02-.46.09-.9.17-1.34.9-4.88,1.8-9.75,2.71-14.63.1-.03.21-.04.32-.06.61-.11,1.22-.2,1.83-.29h.01s0,.07-.01.09c-.47,2.56-.92,5.12-1.36,7.69-.47,2.74-.94,5.48-1.4,8.22-.07.48.01.99.32,1.38.36.47.85.8,1.33,1.13.55.38,1.11.75,1.67,1.12,1.9,1.26,3.81,2.51,5.72,3.76.96.62,1.91,1.26,2.87,1.88,0-.05.02-.1.02-.15,0-8.13,0-16.26,0-24.38,0-.45.01-.9,0-1.35h0ZM20.52,17.1c-.12.07-.1.25,0,.33-.2.03-.4.07-.57.17-.04.02-.08.06-.13.06-.16.02-.33.06-.47.15-.12.08-.2.21-.19.35,0,.18.13.32.28.4.09.06.2.07.3.11,0,.06,0,.12.01.18.17,0,.34-.05.51-.06.44-.03.89-.02,1.32.08.02-.08-.02-.22.1-.23.2-.04.39-.16.47-.35.07-.17,0-.37-.14-.47-.14-.1-.31-.15-.49-.17-.06,0-.1-.04-.15-.07-.17-.1-.36-.14-.55-.17.05-.06.09-.14.07-.22-.05-.14-.24-.22-.36-.11ZM22.36,18.97c.37.34.54.84.55,1.33.04.27-.01.54-.01.82-.04.41-.12.82-.19,1.23-.07.39-.14.77-.16,1.17.02.55.24,1.06.51,1.53.25.45.57.86.82,1.32.08.17.19.35.14.54-.05.11-.13.24-.27.23-.17.02-.3-.12-.41-.23-.24-.28-.43-.61-.6-.94-.2-.47-.59-.82-.94-1.18-.21-.21-.41-.41-.62-.61-.02-.02-.05-.04-.04-.08.38-.31.61-.78.69-1.26.01-.06,0-.13.04-.17.05.04.09.14.17.1.02-.17,0-.34,0-.51,0,.17.01.35,0,.52-.01,0-.04,0-.06.01.01.01.04.03.05.04.07,0,.03-.08.04-.12-.02-.3.03-.61.04-.91.05-.25-.02-.5-.05-.74.09,0,.17,0,.26,0-.03-.52-.11-1.08-.43-1.51-.22-.3-.58-.47-.94-.51-.5-.06-1,.05-1.48.17-.07.01-.07.09-.09.15.12.03.26-.01.37.04-.09.04-.19.06-.28.1-.04.01-.05.06-.05.1,0,.25.06.5.22.69.09-.1.11-.26.25-.32.07-.04.13.03.17.07.17.18.18.46.13.69-.02.12-.18.13-.27.09-.08-.03-.12-.1-.15-.18-.13.34-.07.77.2,1.02.02-.11.02-.24.09-.33.07-.1.2-.13.32-.12,0,.23-.1.48-.31.6-.21.11-.46.12-.69.18-.3.08-.56.27-.76.5-.31.34-.52.74-.8,1.1-.18.24-.41.47-.71.55,0,.1.07.19.12.28.13.21.33.37.54.48,0,.09-.07.16-.12.23-.18.25-.36.51-.6.71-.06.05-.12.09-.2.1-.08-.1-.15-.23-.28-.28-.17-.02-.34.06-.5.1-.02.05-.05.1-.07.15.06.02.13.03.19.06,0,.09,0,.18,0,.27.14.03.28.04.42.09,0,.02,0,.06,0,.08-.1-.01-.19-.04-.29-.06-.07.01-.15.01-.18.08-.11.17-.23.36-.21.57.05-.02.09-.05.13-.08.08,0,.1.1.11.16.03.02.08.07.11.02.11-.09.21-.2.32-.3.05-.02.06.04.07.07-.09.1-.19.2-.28.3-.02.02-.05.05-.04.08,0,.2-.06.4,0,.59.07-.05.13-.14.21-.18.07.02.13.08.2.09.22-.06.31-.29.42-.46.1.07.22.1.33.12.01.06.02.12.03.18,0,0,.02,0,.03,0,.1-.1.17-.25.17-.4,0-.19-.03-.37,0-.56.03-.16.13-.29.24-.4.06.03.12.06.19.08.14.04.29.01.43-.05.1-.03.17-.14.2-.23-.15-.05-.31-.19-.27-.36.02-.11.12-.21.24-.24.19-.04.39-.02.57.06.56.24.91.75,1.33,1.16.03.21-.02.43-.02.64-.01.41-.03.84.1,1.24.08.29.29.52.33.82.02.14,0,.28,0,.42.09-.03.19-.05.26-.12.06-.06.1-.13.14-.21.08,0,.17,0,.25.02-.01.04-.03.08-.05.12-.16.29-.32.59-.53.84-.11.14-.23.26-.39.34-.13.07-.31.08-.44,0-.16-.08-.3-.24-.5-.24-.11,0-.17.1-.24.17-.06.07-.17.06-.25.08-.07.04-.12.13-.1.21.07,0,.14,0,.2.03.01.07.02.15.05.22.06,0,.09-.09.13-.12.07-.06.11-.17.21-.18-.02.04-.04.07-.06.1-.12.14-.2.3-.3.45-.07.1-.04.23-.03.34.01.04,0,.1.05.12.03-.06.06-.11.1-.17.12-.05.13.11.23.15.08-.2.08-.42.14-.63.01,0,.04-.02.06-.03,0,.04,0,.07-.01.11-.09.28-.13.59-.05.88,0,.04.04.07.07.1.04-.07.05-.17.13-.21.06-.04.14-.03.21-.04,0-.06.04-.15,0-.2h.03c0-.09,0-.18,0-.27.02-.07.06-.12.1-.18,0,.02,0,.05,0,.06-.09.29-.06.6.01.89.04.03.08.05.12.08.02-.09.05-.18.07-.27.15-.03.3-.05.46-.08.06,0,.09-.05.13-.09.14-.19.17-.43.27-.63.05-.12.12-.25.25-.29.1-.04.17.06.24.12.07-.16.07-.34.1-.51.04-.3.23-.55.38-.8.16-.24.28-.52.31-.81.01-.22.02-.45-.06-.66-.08.12-.15.24-.23.36-.26.01-.43-.24-.48-.47-.06-.46,0-.96.27-1.35.06-.07.13-.16.24-.15.18.48.65.83,1.16.88.29.03.61-.09.78-.34.1-.15.17-.31.18-.49.05-.18-.02-.37-.1-.53-.1-.23-.25-.44-.38-.66.08-.38.26-.73.46-1.06-.3.11-.53.35-.69.62.01-.17.08-.33.14-.49.08-.22.21-.42.32-.62-.29.09-.48.33-.67.55.1-.39.26-.76.48-1.1-.04,0-.07,0-.1.03-.29.15-.51.4-.66.68-.2-.55-.13-1.15-.06-1.71.1-.79.24-1.58.45-2.36.1-.34.27-.68.58-.87-.47-.08-.91.39-.87.86,0,0-.01,0-.02,0,0-.16-.05-.32-.11-.47-.17-.43-.58-.77-1.04-.85ZM18.75,20.4c-.05.14-.06.33.05.45.1.11.27.1.4.05.22-.08.37-.27.56-.4.09-.06.21-.09.32-.11-.11-.05-.24-.06-.35-.02-.19.07-.38.16-.58.2-.08,0-.19.02-.24-.06-.04-.12,0-.25.05-.37-.11.04-.16.15-.2.25ZM17.18,20.66c0,.16-.11.28-.11.43.02.13.03.26.02.38-.13-.12-.07-.33-.19-.45-.13-.14-.31-.24-.49-.28.03.17-.03.37.08.52.06.09.11.2.18.29,0,.04,0,.09,0,.13-.01,0-.04,0-.06,0-.09-.1-.17-.21-.26-.31-.16-.07-.34,0-.5.05.08.09.16.17.22.27.17.25.34.53.32.84,0,.2-.12.38-.27.5.08.11.22.1.34.12.06,0,.13,0,.18-.03.08-.09.12-.2.2-.29.01,0,.03,0,.04,0,.23.27.43.55.65.82.2-.16.31-.4.46-.6.03-.05.07-.09.07-.14-.1-.4-.57-.58-.66-.99-.06-.34.09-.68,0-1.02-.05-.11-.13-.22-.24-.26ZM19.54,26.04c-.21.07-.34.27-.48.43-.15.19-.38.35-.63.34.02.14.06.29.16.4.07.08.17.12.27.14.01.06.02.11.02.17.02.4.18.8.46,1.1.02.04.1.09.05.13-.18.03-.37.02-.56.02-.15,0-.3,0-.44-.07-.24-.12-.35-.38-.55-.55-.14-.12-.33-.18-.51-.15.03.05.07.1.09.16.02.08-.03.15-.05.23.11.03.23.07.34.1,0,.03,0,.07,0,.1-.17-.04-.37-.06-.53.03-.11.05-.17.16-.21.27.06,0,.13,0,.19,0,.05.09.09.2.11.31.12-.12.22-.26.34-.37,0,.14-.08.27-.16.38-.11.15-.22.33-.2.52.08-.02.14-.07.21-.11.06.07.12.13.18.19.09-.12.1-.28.15-.42h.07c-.02.16-.08.31-.1.46-.04.16-.04.36.11.46.02-.08.05-.15.07-.23.07,0,.14,0,.2.02.16.05.31-.08.39-.21.08-.12.2-.22.35-.22.04.05.09.1.11.16.01.07.02.13.04.2.16-.06.24-.21.37-.3.23-.12.5-.12.75-.13.23-.01.43-.17.57-.35-.26-.24-.47-.53-.63-.83-.11-.23-.21-.49-.17-.75.04-.11.07-.25.19-.29.14-.07.29.02.4.09.02-.16.04-.31.03-.47-.09-.16-.29-.24-.37-.41-.04-.1,0-.2-.02-.3,0,.09,0,.18-.01.27,0-.1,0-.2.01-.3-.17-.13-.37-.28-.6-.23Z"/><path class="cls-2" d="M20.01,17.93c.12-.16.31-.25.51-.24-.04.16-.09.32-.07.49,0,.12.07.23.06.35-.17-.02-.34-.08-.46-.21-.1-.1-.11-.27-.04-.39Z"/><path class="cls-2" d="M20.78,17.69c.18-.01.37.07.49.2.09.09.1.23.06.34-.11.21-.36.29-.57.31.15-.26.16-.59.03-.85Z"/><path class="cls-2" d="M19.4,18.08c.05-.14.2-.2.33-.22-.03.09-.09.18-.08.28,0,.13.11.24.22.31,0,.02,0,.06,0,.08-.14,0-.3-.02-.41-.14-.09-.08-.08-.2-.06-.31Z"/><path class="cls-2" d="M21.6,17.86c.14.02.28.09.33.23.03.11.01.24-.08.31-.14.13-.34.12-.52.12.12-.07.27-.14.32-.28.05-.13,0-.25-.05-.37Z"/><path class="cls-2" d="M8.59,18.05c.31,0,.63,0,.94,0,0,.28,0,.56,0,.84.24,0,.48,0,.72,0,.02-.03.02-.07.02-.1,0-.23,0-.46,0-.69.3,0,.59,0,.89,0,0,.67,0,1.35,0,2.02-1.43,0-2.85,0-4.28,0,0-.67,0-1.35,0-2.02.3,0,.59,0,.89,0,0,.17,0,.34,0,.51,0,.09-.01.19.02.28.25,0,.5,0,.75,0,.05-.28,0-.56.03-.84Z"/><path class="cls-2" d="M20.27,19.29c.19,0,.39-.02.57.02.03.01.09,0,.08.06-.16.08-.33.12-.49.19-.05.02-.11.04-.17.05,0-.1,0-.21,0-.31Z"/><path class="cls-2" d="M7.6,20.46c.96,0,1.91,0,2.87,0,.05.23.06.48.1.72.28,2.24.56,4.47.84,6.71.01.19.06.37.06.56-1.62,0-3.24,0-4.86,0,.02-.37.1-.74.13-1.11.29-2.28.57-4.56.85-6.83,0-.01,0-.03.01-.04ZM8.35,22.78c0,.16-.02.32.02.47.44,0,.89,0,1.33,0,.04-.16.02-.32.02-.48,0,0-.03-.02-.03-.03-.44,0-.87,0-1.31,0,0,0-.02.03-.03.03ZM8.37,24.34c0,.16,0,.32,0,.48.45,0,.9,0,1.35,0,.01-.16,0-.32,0-.48-.04-.02-.08-.03-.12-.03-.37,0-.74,0-1.11,0-.04,0-.09,0-.13.02ZM8.34,25.92c.01.16-.02.33.03.48.44,0,.89,0,1.33,0,.05-.16.01-.32.02-.48-.04-.02-.08-.03-.12-.03-.37,0-.74,0-1.11,0-.05,0-.1.01-.15.03Z"/><path class="cls-2" d="M6.05,28.82c1.99,0,3.98,0,5.96,0,0,.67,0,1.35,0,2.02-.53,0-1.06,0-1.59,0-.01-.18.01-.35-.02-.53-.91,0-1.82,0-2.74,0,0,.17,0,.35,0,.52-.54,0-1.08,0-1.61,0,0-.67,0-1.35,0-2.02Z"/><path class="cls-1" d="M35.82,9.03c3.18,0,6.36,0,9.54,0,1.9-.01,3.81.06,5.69.39,1.4.25,2.81.64,4.04,1.39.59.36,1.12.8,1.55,1.34.39.48.68,1.03.88,1.6.26.76.36,1.57.35,2.37-.01.67-.11,1.34-.34,1.98-.24.69-.65,1.32-1.16,1.84-.91.91-2.1,1.48-3.31,1.85-.29.1-.59.16-.89.25,1.37.26,2.73.66,3.91,1.43.56.37,1.08.83,1.48,1.38.37.49.63,1.05.81,1.64.22.74.3,1.53.29,2.3-.02.86-.14,1.72-.44,2.52-.39,1.08-1.11,2.03-2.04,2.71-1.08.79-2.36,1.25-3.66,1.53-1,.21-2.03.33-3.05.37-.76.05-1.51.03-2.27.03h-6.12c-1.75,0-3.5,0-5.26,0,0-8.97,0-17.94,0-26.91ZM43.06,13.92c0,2,0,4.01,0,6.01.55,0,1.1,0,1.65,0,.95-.01,1.91.04,2.86-.1.7-.11,1.42-.29,2-.71.5-.36.83-.93.94-1.53.12-.69.08-1.43-.26-2.05-.3-.54-.83-.93-1.4-1.16-.81-.33-1.7-.43-2.57-.46-1.07,0-2.15,0-3.22,0ZM43.06,24.58c0,2.15,0,4.31,0,6.46.89,0,1.78,0,2.67,0,.98,0,1.98-.04,2.94-.28.65-.17,1.3-.45,1.74-.97.44-.51.63-1.19.65-1.85.03-.64-.09-1.32-.46-1.85-.37-.54-.95-.89-1.55-1.09-.97-.33-2-.4-3.02-.42-.99,0-1.98,0-2.97,0Z"/><path class="cls-1" d="M62.2,9.03c3.9,0,7.79,0,11.69,0,1.26-.01,2.53.03,3.77.22,1.05.16,2.09.43,3.06.86.88.39,1.7.91,2.38,1.58.65.63,1.15,1.4,1.5,2.23.32.76.51,1.57.6,2.39.12,1.03.1,2.08-.07,3.11-.12.76-.34,1.51-.67,2.21-.68,1.47-1.88,2.67-3.3,3.43-.77.42-1.61.73-2.47.93-1.15.28-2.34.38-3.52.4-1.82,0-3.64,0-5.46,0,0,3.08,0,6.15,0,9.23,0,.1,0,.21-.01.32-2.5,0-5,0-7.5,0-.01-1.54,0-3.09,0-4.64,0-7.43,0-14.85,0-22.28ZM69.72,14.06c0,2.34,0,4.69,0,7.03,1.04,0,2.08,0,3.11,0,.66,0,1.33-.02,1.98-.15.54-.11,1.08-.28,1.54-.58.35-.22.66-.53.87-.89.28-.46.41-1,.46-1.53.04-.64,0-1.3-.23-1.91-.2-.54-.6-1.01-1.09-1.31-.48-.29-1.02-.44-1.56-.54-.71-.13-1.43-.14-2.15-.14-.97,0-1.95,0-2.93,0Z"/><path class="cls-1" d="M88.52,9.03c2.49-.01,4.99,0,7.48,0,0,8.28,0,16.56,0,24.84,0,.69,0,1.38,0,2.06-2.49.01-4.99,0-7.48,0,0-8.97,0-17.94,0-26.91Z"/></svg>